<svg version="1.1" xmlns="http://www.w3.org/2000/svg" viewBox="-1155.0586584421806 -2656.7528646489855 6333.413527533646 4573.153662217585"><desc>Created with Snap</desc><defs></defs><g><g transform="matrix(14.7057,0,0,14.7057,-929.4963,-3311.3204)">
<g id="gSkv0zgs4vhr">
	<g>
		<g>
			<path d="M387.88501,83.59349V316.4075H12.115V83.59349H387.88501 M391.96945,79.50903H8.03054v240.98294h383.9389V79.50903
				L391.96945,79.50903z" fill="#e8715b" style=""></path>
			<path d="M38.30037,67.71037l353.83911,50.25497l-30.43997,214.32426L7.86052,282.03564L38.30037,67.71037 M36.56565,65.4009
				L5.55142,283.77075l357.88281,50.82834l31.01434-218.36884L36.56565,65.4009L36.56565,65.4009z" fill="#e8715b" style=""></path>
			<path d="M361.69949,67.71037l30.43997,214.32527L38.30037,332.28961L7.86052,117.96535L361.69949,67.71037 M363.43423,65.4009
				L5.55142,116.23025l31.01422,218.36884l357.88293-50.82834L363.43423,65.4009L363.43423,65.4009z" fill="#e8715b" style=""></path>
		</g>
		<rect x="47.64159" y="114.85448" width="304.71683" height="170.29103" fill="#e8715b" style=""></rect>
	</g>
</g>


<desc>Created with Snap</desc><defs></defs></g><g><g transform="matrix(1.024,0,0,-1.024,0,0)"><path d="M670 354L670 62Q655 49 628 36Q601 24 568 14Q536 4 501 -2Q467 -8 437 -8Q350 -8 280 19Q211 46 161 94Q112 142 85 207Q59 272 59 348Q59 438 88 509Q118 581 169 630Q221 680 288 705Q355 731 430 731Q493 731 547 716Q601 701 642 678L609 589Q589 601 559 611Q530 621 499 627Q468 634 441 634Q377 634 325 614Q273 595 236 558Q199 522 179 470Q159 419 159 355Q159 296 179 247Q199 198 236 162Q273 127 324 107Q376 88 438 88Q475 88 511 95Q547 103 573 117L573 261L429 261L429 354L670 354ZM855 723L1047 723Q1102 723 1148 708Q1195 694 1229 665Q1264 637 1283 595Q1303 554 1303 499Q1303 456 1290 415Q1278 374 1249 340Q1220 307 1173 286Q1127 266 1059 266L952 266L952 0L855 0L855 723ZM952 359L1057 359Q1100 359 1128 372Q1157 385 1173 405Q1189 426 1196 450Q1203 474 1203 495Q1203 517 1195 540Q1188 564 1171 584Q1155 604 1128 617Q1102 630 1064 630L952 630L952 359ZM1061 301L1176 304L1365 0L1253 0L1061 301ZM1514 723L1707 723Q1786 723 1842 696Q1898 670 1928 620Q1959 570 1959 499Q1959 456 1946 414Q1933 373 1904 339Q1876 306 1830 286Q1784 266 1718 266L1611 266L1611 0L1514 0L1514 723ZM1611 359L1717 359Q1760 359 1788 373Q1816 387 1832 408Q1848 430 1855 454Q1862 478 1862 497Q1862 519 1855 542Q1848 566 1831 585Q1815 605 1788 617Q1762 630 1723 630L1611 630L1611 359ZM2507 0L2058 0Q2122 62 2180 122Q2238 182 2284 238Q2331 294 2358 346Q2385 399 2385 448Q2385 481 2374 504Q2363 528 2345 543Q2328 558 2306 565Q2284 573 2261 573Q2228 573 2205 562Q2182 552 2167 535Q2153 518 2146 499Q2140 480 2140 461Q2140 428 2150 401Q2160 375 2179 355L2119 302Q2096 317 2079 344Q2063 371 2054 402Q2046 434 2046 459Q2046 513 2072 560Q2099 608 2150 637Q2202 666 2276 666Q2339 666 2386 637Q2433 608 2459 560Q2485 513 2485 456Q2485 406 2465 358Q2445 310 2411 263Q2378 216 2337 170Q2297 125 2257 79L2215 93L2507 93L2507 0ZM2603 565L2603 658L2775 658L2775 0L2678 0L2678 565L2603 565ZM2910 658L3340 658L3077 0L2968 0L3205 579L3239 565L2910 565L2910 658ZM3870 0L3421 0Q3485 62 3543 122Q3601 182 3647 238Q3694 294 3721 346Q3748 399 3748 448Q3748 481 3737 504Q3726 528 3708 543Q3691 558 3669 565Q3647 573 3624 573Q3591 573 3568 562Q3545 552 3530 535Q3516 518 3509 499Q3503 480 3503 461Q3503 428 3513 401Q3523 375 3542 355L3482 302Q3459 317 3442 344Q3426 371 3417 402Q3409 434 3409 459Q3409 513 3435 560Q3462 608 3513 637Q3565 666 3639 666Q3702 666 3749 637Q3796 608 3822 560Q3848 513 3848 456Q3848 406 3828 358Q3808 310 3774 263Q3741 216 3700 170Q3660 125 3620 79L3578 93L3870 93L3870 0Z" fill="#072a55" style=""></path></g></g></g></svg>